# Alias OBJ Model File
# Exported from SketchUp, (c) 2000-2012 Trimble Navigation Limited
# File units = millimeters

mtllib 6housesBase.mtl

g Mesh1 Group2 Group1 Model

usemtl Color_M03
v 1316.57 -1.39863e-12 8542.56
vt 1.31618e-31 -17.4961
vn 9.72123e-17 1 7.73844e-17
v 14792.2 -1.39863e-12 8542.56
vt 530.535 -17.4961
v 14792.2 -1.51901e-12 -6830.24
vt 530.535 587.732
v 1316.57 1.10098e-12 -6830.24
vt -9.43503e-30 587.732
f 1/1/1 2/2/1 3/3/1 4/4/1 

vt 530.535 -1.45939e-29
vn 0 -7.73844e-17 1
vt 0 -1.45939e-29
v 1316.57 -442 8542.56
vt 0 -17.4016
v 14792.2 -442 8542.56
vt 530.535 -17.4016
f 2/5/2 1/6/2 5/7/2 6/8/2 

vt 17.4961 -1.35392e-15
vn -1 9.72123e-17 1.50454e-32
vt -587.732 9.70559e-14
v 1316.57 -442 -6830.24
vt -587.732 -17.4016
vt 17.4961 -17.4016
f 1/9/3 4/10/3 7/11/3 5/12/3 

vt 8.84269e-30 5.15746e-14
vn 1.50454e-32 7.73844e-17 -1
vt -530.535 -5.15746e-14
v 14792.2 -442 -6830.24
vt -530.535 -17.4016
vt 8.84269e-30 -17.4016
f 4/13/4 3/14/4 8/15/4 7/16/4 

vt 587.732 4.54813e-14
vn 1 -9.72123e-17 -0
vt -17.4961 5.02207e-14
vt -17.4961 -17.4016
vt 587.732 -17.4016
f 3/17/5 2/18/5 6/19/5 8/20/5 

vt -530.535 -17.4961
vn -9.72123e-17 -1 -7.73844e-17
vt -1.69165e-15 -17.4961
vt -1.69165e-15 587.732
vt -530.535 587.732
f 6/21/6 5/22/6 7/23/6 8/24/6 

g Mesh2 Group3 Group1 Model

usemtl Color_M00
v 6105.77 2.43031e-13 8542.56
vt -188.551 4.4435e-31
vn -7.58446e-17 -1 -1.86164e-17
v 6105.77 1.08776e-14 2356.16
vt -188.551 243.559
v 1316.57 1.55303e-12 2356.16
vt 4.63734e-30 243.559
v 1316.57 2.43031e-13 -643.842
vt 7.25692e-31 361.669
v 8500.37 7.83166e-13 -643.842
vt -282.827 361.669
v 8500.37 7.99402e-15 8542.56
vt -282.827 4.05198e-31
f 9/25/7 10/26/7 11/27/7 12/28/7 13/29/7 14/30/7 

vt -243.559 1.47288e-14
vn -1 7.58446e-17 -2.84617e-33
vt -5.36649e-31 2.38687e-14
v 6105.77 79 8542.56
vt -5.36649e-31 3.11024
v 6105.77 79 2356.16
vt -243.559 3.11024
f 10/31/8 9/32/8 15/33/8 16/34/8 

vt 188.551 9.56814e-15
vn -1.80975e-33 -1.86164e-17 1
vt 282.827 3.14725e-16
v 8500.37 79 8542.56
vt 282.827 3.11024
vt 188.551 3.11024
f 9/35/9 14/36/9 17/37/9 15/38/9 

vt -1.81008e-30 2.17656e-14
vn 1 -7.58446e-17 -6.39996e-33
vt 361.669 5.22842e-14
v 8500.37 79 -643.842
vt 361.669 3.11024
vt -1.81008e-30 3.11024
f 14/39/10 13/40/10 18/41/10 17/42/10 

vt -282.827 2.41003e-14
vn -1.35907e-33 1.86164e-17 -1
vt -4.91535e-31 2.83515e-15
v 1316.57 79 -643.842
vt -4.91535e-31 3.11024
vt -282.827 3.11024
f 13/43/11 12/44/11 19/45/11 18/46/11 

vt -361.669 9.56814e-15
vn -1 7.58446e-17 -3.31187e-32
vt -243.559 6.11427e-14
v 1316.57 79 2356.16
vt -361.669 3.11024
f 12/47/12 11/48/12 20/34/12 19/49/12 

vt -1.46004e-30 5.66085e-14
vn -5.99459e-33 -1.86164e-17 1
vt 188.551 -4.10595e-15
vt -1.46004e-30 3.11024
f 11/50/13 10/51/13 16/38/13 20/52/13 

vt 188.551 243.559
vn 7.58446e-17 1 1.86164e-17
vt 188.551 5.79015e-17
vt 282.827 5.79015e-17
vt 282.827 361.669
vt -2.35895e-16 361.669
vt -2.35895e-16 243.559
f 16/53/14 15/54/14 17/55/14 18/56/14 19/57/14 20/58/14 

g Mesh3 Group4 Model

usemtl Color_M09
v 14792.2 -1.28079e-12 -643.842
vt -247.709 267.394
vn -3.10231e-16 -1 -1.03271e-16
v 8500.37 2.01139e-12 -643.842
vt 4.87768e-29 267.394
v 8500.37 1.30999e-12 -6830.24
vt 4.02101e-29 510.953
v 14792.2 6.98354e-13 -6830.24
vt -247.709 510.953
f 21/59/15 22/60/15 23/61/15 24/62/15 

vt -1.4449e-29 1.29613e-13
vn -5.40364e-32 -1.03271e-16 1
vt 247.709 -9.46633e-30
v 14792.2 6684 -643.842
vt 247.709 263.15
v 8500.37 6684 -643.842
vt -1.4449e-29 263.15
f 22/63/16 21/64/16 25/65/16 26/66/16 

vt 267.394 1.04461e-13
vn 1 -3.10231e-16 -6.40756e-32
vt 510.953 1.8238e-13
v 14792.2 6684 -6830.24
vt 510.953 263.15
vt 267.394 263.15
f 21/67/17 24/68/17 27/69/17 25/70/17 

vt -247.709 5.27665e-14
vn 1.00392e-32 1.03271e-16 -1
vt 5.12956e-30 7.68469e-14
v 8500.37 6684 -6830.24
vt 5.12956e-30 263.15
vt -247.709 263.15
f 24/71/18 23/72/18 28/73/18 27/74/18 

vt -510.953 1.29613e-13
vn -1 3.10231e-16 -0
vt -267.394 1.57227e-13
vt -267.394 263.15
vt -510.953 263.15
f 23/75/19 22/76/19 26/77/19 28/78/19 

vt -8.16371e-14 267.394
vn 3.10231e-16 1 1.03271e-16
vt 247.709 267.394
vt 247.709 510.953
vt -8.16371e-14 510.953
f 26/79/20 25/80/20 27/81/20 28/82/20 

